<?xml version="1.0" standalone="no"?>
<!DOCTYPE svg PUBLIC "-//W3C//DTD SVG 20010904//EN"
 "http://www.w3.org/TR/2001/REC-SVG-20010904/DTD/svg10.dtd">
<svg version="1.0" xmlns="http://www.w3.org/2000/svg"
 width="512.000000pt" height="512.000000pt" viewBox="0 0 512.000000 512.000000"
 preserveAspectRatio="xMidYMid meet">
<metadata>
Created by potrace 1.14, written by Peter Selinger 2001-2017
</metadata>
<g transform="translate(0.000000,512.000000) scale(0.100000,-0.100000)"
fill="#000000" stroke="none">
<path d="M2559 4358 c-5 -18 -6 -38 -1 -34 7 8 12 36 6 36 -2 0 -4 -1 -5 -2z"/>
<path d="M2550 4198 c-1 -62 -4 -142 -5 -178 -4 -78 -16 -690 -19 -1023 -2
-151 -6 -241 -13 -248 -8 -8 -13 5 -18 43 -3 29 -8 64 -10 78 -2 14 -6 48 -10
75 -10 91 -14 119 -35 275 -12 85 -23 160 -25 165 -5 11 4 -282 10 -360 3 -27
7 -97 10 -155 3 -58 7 -128 9 -157 4 -51 3 -53 -95 -192 -54 -78 -99 -146 -99
-151 0 -5 19 -22 43 -39 103 -72 207 -177 208 -210 0 -14 2 -33 3 -41 2 -8 6
-55 10 -105 3 -49 8 -100 11 -113 2 -12 7 -71 10 -130 l7 -107 -47 -75 c-70
-110 -105 -170 -105 -178 0 -3 15 16 33 43 18 28 52 77 75 109 40 56 42 58 43
30 2 -151 10 -371 14 -381 6 -17 -11 -20 -95 -18 -88 2 -109 12 -146 63 -15
20 -47 56 -72 79 -40 37 -47 51 -69 135 -14 51 -26 100 -28 108 -2 8 -4 17 -5
20 -2 9 -21 -43 -40 -110 -17 -59 -17 -71 -4 -133 22 -106 25 -157 10 -157
-32 0 -78 24 -90 49 -8 14 -68 192 -135 394 -113 344 -144 427 -157 427 -3 0
-3 -31 0 -70 3 -38 2 -70 -2 -70 -4 0 -31 71 -61 158 -68 198 -74 210 -105
247 -23 26 -17 4 48 -190 43 -129 91 -298 116 -410 23 -104 55 -242 70 -305
16 -63 27 -116 26 -117 -1 -1 -28 -5 -59 -9 l-57 -7 -19 44 c-11 24 -28 72
-38 106 -10 35 -21 63 -24 63 -4 0 -9 -18 -13 -39 -6 -37 -48 -101 -66 -101
-35 0 -112 151 -185 365 -21 61 -42 115 -48 120 -7 7 -8 7 -4 0 3 -5 8 -34 12
-64 4 -30 8 -61 10 -70 2 -14 8 -55 21 -151 2 -14 4 -65 4 -114 1 -66 -3 -93
-14 -104 -12 -13 -16 -10 -32 19 -9 19 -18 49 -19 68 -1 19 -8 37 -14 39 -15
5 -84 149 -142 297 -42 108 -62 148 -55 109 2 -10 6 -45 10 -76 3 -32 9 -82
12 -112 3 -30 3 -64 -1 -75 -6 -20 -9 -19 -51 15 -63 52 -64 46 -18 -63 19
-42 18 -53 -4 -53 -13 0 -42 37 -92 115 -40 63 -74 115 -75 115 -2 0 10 -43
25 -96 16 -53 25 -93 20 -88 -4 5 -89 126 -188 269 -290 417 -305 437 -243
316 16 -31 41 -83 56 -116 15 -33 48 -103 72 -155 25 -52 59 -124 75 -160 17
-36 40 -83 50 -105 l20 -40 -43 40 -42 40 24 -40 c13 -22 51 -83 84 -136 33
-53 116 -187 185 -297 113 -183 129 -204 168 -222 87 -41 259 -85 412 -104
345 -43 653 -59 1150 -59 278 -1 606 8 681 18 14 1 61 6 105 9 43 4 90 8 104
11 14 2 52 7 85 11 68 7 72 8 135 19 68 11 69 12 160 35 116 29 215 67 276
105 53 34 47 25 224 350 18 33 83 150 143 260 175 320 186 340 183 360 -2 11
1 38 6 60 6 22 11 49 14 60 2 11 9 42 15 68 6 26 10 50 8 52 -2 2 -40 -53 -84
-121 -73 -113 -83 -125 -115 -130 -59 -10 -64 -13 -82 -52 -46 -99 -100 -217
-145 -312 -27 -58 -58 -124 -68 -147 -10 -24 -21 -43 -24 -43 -3 0 -19 20 -34
45 l-28 44 30 120 c36 141 37 144 14 132 -10 -6 -45 -22 -78 -37 -33 -14 -82
-37 -110 -50 -27 -13 -50 -22 -52 -20 -2 2 78 240 161 476 8 24 14 46 12 47
-2 2 -32 -27 -67 -65 -35 -38 -88 -86 -116 -106 l-53 -38 -54 -166 c-30 -92
-59 -180 -65 -196 l-11 -28 -34 38 c-18 22 -45 53 -60 69 l-26 30 19 -45 c34
-84 48 -194 26 -208 -18 -12 -149 -62 -152 -58 -2 2 13 48 34 102 29 79 37
111 35 159 -1 51 11 99 86 328 49 147 85 264 81 260 -14 -15 -298 -588 -303
-613 -3 -14 -8 -36 -10 -50 -6 -40 -56 -232 -63 -242 -3 -6 -31 -21 -62 -35
-31 -14 -64 -33 -74 -44 -20 -21 -56 -26 -58 -6 -4 31 2 68 25 145 13 45 23
82 21 82 -6 0 -136 -172 -156 -207 -13 -24 -26 -43 -29 -43 -3 0 -21 26 -40
57 -18 32 -41 70 -49 85 l-16 27 -84 -80 c-80 -75 -96 -84 -147 -80 -12 1 -48
-8 -80 -21 -36 -15 -78 -23 -109 -23 l-50 1 2 169 c1 94 2 204 2 245 l1 76
100 144 100 145 -32 29 c-18 16 -61 54 -96 85 l-63 56 4 330 4 330 32 54 c35
58 216 327 291 431 56 78 289 411 309 443 35 53 -13 -5 -68 -83 -33 -47 -64
-89 -68 -95 -5 -5 -51 -68 -103 -140 -156 -216 -377 -512 -386 -518 -5 -3 -10
108 -11 246 -3 263 -14 849 -18 927 -1 25 -3 98 -4 163 0 64 -5 117 -10 117
-5 0 -10 -51 -11 -112z m-23 -1695 c2 -80 1 -144 -1 -142 -7 7 -20 152 -18
199 1 37 5 69 11 88 4 13 6 -20 8 -145z m-42 -94 c3 -68 8 -146 10 -173 l5
-50 -85 85 c-46 46 -85 90 -85 97 0 7 30 53 67 103 48 65 69 86 74 76 5 -8 11
-70 14 -138z m170 -590 c-37 -63 -69 -116 -71 -118 -2 -2 -2 36 0 85 2 49 4
132 5 184 l1 95 66 -66 67 -67 -68 -113z m-105 -728 c3 0 111 -3 240 -5 254
-6 573 -17 578 -21 4 -3 -145 -105 -154 -105 -4 0 -15 -6 -23 -14 -27 -25
-202 -108 -270 -130 -54 -17 -90 -21 -196 -20 -125 2 -261 9 -355 20 -64 7
-158 54 -208 103 -40 40 -102 134 -102 156 0 7 63 12 173 14 94 1 173 3 174 4
1 2 108 0 143 -2z m-859 -36 c15 -38 9 -74 -18 -119 l-28 -46 -55 6 c-30 4
-58 8 -62 11 -4 2 -25 40 -47 83 l-40 79 92 3 c146 5 149 4 158 -17z m1939 -9
c0 -4 -16 -39 -36 -76 -35 -67 -35 -68 -86 -74 -28 -4 -52 -6 -53 -4 -1 2 11
40 27 85 l30 81 59 -1 c32 -1 59 -6 59 -11z"/>
<path d="M3319 3833 c-13 -16 -12 -17 4 -4 16 13 21 21 13 21 -2 0 -10 -8 -17
-17z"/>
<path d="M3279 3773 c-29 -35 -41 -53 -36 -53 2 0 17 16 31 35 28 36 31 49 5
18z"/>
<path d="M300 2767 c0 -6 86 -231 104 -272 8 -16 19 -47 26 -67 12 -39 31 -62
24 -31 -2 10 -13 68 -24 128 -12 61 -23 117 -26 125 -4 15 -104 128 -104 117z"/>
<path d="M1430 2617 c0 -13 42 -161 49 -169 3 -4 7 9 9 28 1 23 -8 54 -28 92
-16 31 -29 53 -30 49z"/>
<path d="M4292 2460 c-41 -25 -44 -33 -40 -111 l3 -64 36 98 c20 53 36 97 35
97 0 0 -16 -9 -34 -20z"/>
</g>
</svg>
